<?xml version="1.0" encoding="UTF-8"?>
<svg width="128" height="128" viewBox="0 0 128 128" fill="none" xmlns="http://www.w3.org/2000/svg">
  <circle cx="64" cy="64" r="60" fill="#409EFF"/>
  <path d="M64 24C42.4 24 24 42.4 24 64C24 85.6 42.4 104 64 104C85.6 104 104 85.6 104 64C104 42.4 85.6 24 64 24ZM64 96C47.4 96 32 80.6 32 64C32 47.4 47.4 32 64 32C80.6 32 96 47.4 96 64C96 80.6 80.6 96 64 96Z" fill="white"/>
  <path d="M64 40C51.8 40 40 51.8 40 64C40 76.2 51.8 88 64 88C76.2 88 88 76.2 88 64C88 51.8 76.2 40 64 40ZM64 80C55.2 80 48 72.8 48 64C48 55.2 55.2 48 64 48C72.8 48 80 55.2 80 64C80 72.8 72.8 80 64 80Z" fill="white"/>
  <circle cx="64" cy="64" r="8" fill="white"/>
</svg> 